HIERARCHY
ROOT Hips
{
	OFFSET -0.001795 -0.223333 0.028219
	CHANNELS 6 Xposition Yposition Zposition Zrotation Yrotation Xrotation 
	JOINT LeftUpLeg
	{
		OFFSET 0.069520 -0.091406 -0.006815
		CHANNELS 3 Zrotation Yrotation Xrotation
		JOINT LeftLeg
		{
			OFFSET 0.034277 -0.375199 -0.004496
			CHANNELS 3 Zrotation Yrotation Xrotation
			JOINT LeftFoot
			{
				OFFSET -0.013596 -0.397961 -0.043693
				CHANNELS 3 Zrotation Yrotation Xrotation
				JOINT LeftToe
				{
					OFFSET 0.026358 -0.055791 0.119288
					CHANNELS 3 Zrotation Yrotation Xrotation
					End Site
					{
						OFFSET 0.000000 0.000000 0.000000
					}
				}
			}
		}
	}
	JOINT RightUpLeg
	{
		OFFSET -0.067670 -0.090522 -0.004320
		CHANNELS 3 Zrotation Yrotation Xrotation
		JOINT RightLeg
		{
			OFFSET -0.038290 -0.382569 -0.008850
			CHANNELS 3 Zrotation Yrotation Xrotation
			JOINT RightFoot
			{
				OFFSET 0.015774 -0.398415 -0.042312
				CHANNELS 3 Zrotation Yrotation Xrotation
				JOINT RightToe
				{
					OFFSET -0.025372 -0.048144 0.123348
					CHANNELS 3 Zrotation Yrotation Xrotation
					End Site
					{
						OFFSET 0.000000 0.000000 0.000000
					}
				}
			}
		}
	}
	JOINT Spine
	{
		OFFSET -0.002533 0.108963 -0.026696
		CHANNELS 3 Zrotation Yrotation Xrotation
		JOINT Spine1
		{
			OFFSET 0.005487 0.135180 0.001092
			CHANNELS 3 Zrotation Yrotation Xrotation
			JOINT Spine2
			{
				OFFSET 0.001457 0.052922 0.025425
				CHANNELS 3 Zrotation Yrotation Xrotation
				JOINT Neck
				{
					OFFSET -0.002778 0.213870 -0.042857
					CHANNELS 3 Zrotation Yrotation Xrotation
					JOINT Head
					{
						OFFSET 0.005152 0.064970 0.051349
						CHANNELS 3 Zrotation Yrotation Xrotation
						End Site
						{
							OFFSET 0.000000 0.000000 0.000000
						}
					}
				}
				JOINT LeftShoulder
				{
					OFFSET 0.078845 0.121749 -0.034090
					CHANNELS 3 Zrotation Yrotation Xrotation
					JOINT LeftArm
					{
						OFFSET 0.090977 0.030469 -0.008868
						CHANNELS 3 Zrotation Yrotation Xrotation
						JOINT LeftForeArm
						{
							OFFSET 0.259612 -0.012772 -0.027456
							CHANNELS 3 Zrotation Yrotation Xrotation
							JOINT LeftHand
							{
								OFFSET 0.249234 0.008986 -0.001171
								CHANNELS 3 Zrotation Yrotation Xrotation
								End Site
								{
									OFFSET 0.000000 0.000000 0.000000
								}
							}
						}
					}
				}
				JOINT RightShoulder
				{
					OFFSET -0.081759 0.118833 -0.038615
					CHANNELS 3 Zrotation Yrotation Xrotation
					JOINT RightArm
					{
						OFFSET -0.096012 0.032551 -0.009143
						CHANNELS 3 Zrotation Yrotation Xrotation
						JOINT RightForeArm
						{
							OFFSET -0.253742 -0.013329 -0.021401
							CHANNELS 3 Zrotation Yrotation Xrotation
							JOINT RightHand
							{
								OFFSET -0.255298 0.007772 -0.005559
								CHANNELS 3 Zrotation Yrotation Xrotation
								End Site
								{
									OFFSET 0.000000 0.000000 0.000000
								}
							}
						}
					}
				}
			}
		}
	}
}
MOTION
Frames: 16
Frame Time: 0.050000
0.005264 1.284268 0.068354 -0.695928 -5.993827 4.133932 0.817773 -0.495194 -5.784830 -2.041046 0.250272 19.057443 -7.355110 1.265788 35.656783 0.000000 0.000000 0.000000 -0.495430 0.384959 -3.912342 -0.528588 1.015759 16.657090 10.595620 1.164225 35.575187 0.000000 0.000000 0.000000 4.855797 -0.118107 0.295684 -3.429840 1.630493 -0.281444 -2.288745 6.317086 3.112338 5.428688 -4.354871 -0.093592 0.000000 0.000000 0.000000 -1.177493 -11.792975 3.883620 -31.252960 -6.036230 -2.075500 -77.989688 -79.859161 70.472743 0.000000 0.000000 0.000000 1.170361 8.941753 3.227628 38.725146 10.646100 -0.465596 -168.929676 88.208254 -162.469367 0.000000 0.000000 0.000000 
0.005127 1.347622 0.072451 -1.134852 -8.223114 2.663581 1.995022 -0.542618 -7.506775 -4.425246 1.655940 29.213622 -3.975720 2.829248 28.890694 0.000000 0.000000 0.000000 -0.489886 0.659562 -6.719255 0.860894 1.807636 30.026762 9.631948 -0.494654 35.946091 0.000000 0.000000 0.000000 4.863299 -0.263575 2.311187 -3.267362 1.568678 -0.031950 -4.128284 9.127146 3.331157 8.430234 -6.053702 -3.331948 0.000000 0.000000 0.000000 -6.747295 -11.747757 3.510696 -40.136379 -1.365348 -4.031007 -48.730553 -75.675951 39.939910 0.000000 0.000000 0.000000 10.888526 6.507932 2.855207 45.431780 7.835171 -1.678823 40.252169 83.008362 42.183984 0.000000 0.000000 0.000000 
0.004837 1.376588 0.078300 -1.651228 -10.089399 2.813208 2.278032 -0.637598 -9.731832 -3.628689 1.765910 32.018602 -2.629931 4.124468 28.545327 0.000000 0.000000 0.000000 0.313033 0.923573 -8.986626 1.585255 2.225090 34.792473 8.461618 -3.105711 38.558901 0.000000 0.000000 0.000000 5.737575 -0.386712 3.432271 -3.387401 1.571644 -1.295856 -4.150024 9.444857 4.360935 8.576870 -6.176318 -3.519380 0.000000 0.000000 0.000000 -12.591137 -11.100771 3.092524 -43.512200 4.783089 -6.495771 -28.098337 -67.716299 20.541709 0.000000 0.000000 0.000000 15.336963 5.680015 2.535559 50.629428 4.811212 -3.204973 21.714972 73.249392 21.185476 0.000000 0.000000 0.000000 
0.004539 1.381496 0.082386 -1.827651 -10.317636 1.901191 1.471516 -0.826859 -11.822446 -2.146109 1.339686 35.057124 -1.225952 3.887412 20.415566 0.000000 0.000000 0.000000 1.425113 1.366426 -12.084369 2.011344 2.399110 37.710288 7.473880 -1.253499 29.981419 0.000000 0.000000 0.000000 5.661750 -0.450417 4.414028 -3.682875 1.867850 1.665334 -3.674703 7.997730 1.368271 8.202831 -7.058571 1.935545 0.000000 0.000000 0.000000 -14.679264 -9.048068 2.175851 -46.497732 10.597428 -8.933107 -31.786277 -59.540197 20.010855 0.000000 0.000000 0.000000 18.980645 5.160581 1.892178 52.580896 -0.234183 -5.135372 16.510322 63.241338 13.444872 0.000000 0.000000 0.000000 
0.003768 1.367439 0.083576 -2.446285 -11.607325 3.032419 3.073109 -0.705770 -13.831778 -3.245924 1.960204 33.822369 -1.517099 3.367481 20.746277 0.000000 0.000000 0.000000 2.071794 1.498458 -12.735008 0.557041 2.835033 34.565207 7.436552 1.270014 23.418028 0.000000 0.000000 0.000000 6.327355 -0.450176 3.934141 -3.331749 1.650651 0.762993 -4.697593 9.725173 3.175929 9.754243 -8.301913 1.276490 0.000000 0.000000 0.000000 -12.139589 -6.731225 1.127783 -51.671037 10.945618 -10.528261 -34.498191 -49.689671 17.377266 0.000000 0.000000 0.000000 16.545748 1.440444 0.235458 56.055487 -2.225175 -6.483444 27.112651 51.666189 16.035286 0.000000 0.000000 0.000000 
0.002769 1.320907 0.082916 -2.645073 -9.967275 6.703277 4.141673 -0.702988 -16.687136 -2.687017 1.007526 26.328707 -3.644805 2.690062 28.331133 0.000000 0.000000 0.000000 3.741840 1.935797 -14.961451 -2.115168 2.690884 26.851060 8.239022 0.973824 26.831067 0.000000 0.000000 0.000000 5.568463 -0.411965 3.029001 -2.346629 1.005827 -3.928339 -3.914492 9.682764 5.612370 9.522094 -7.936243 0.409838 0.000000 0.000000 0.000000 -10.989363 -6.012621 0.957040 -54.122659 12.946159 -12.257018 -30.108447 -41.101686 12.440445 0.000000 0.000000 0.000000 15.489719 -0.350680 -0.558993 56.242307 -7.333039 -8.934602 29.311480 46.298817 15.144994 0.000000 0.000000 0.000000 
0.002516 1.252360 0.082490 -1.988978 -9.173947 6.191454 4.285375 -0.731642 -17.673572 -3.247479 0.794818 19.160595 -3.574261 5.141436 36.886976 0.000000 0.000000 0.000000 2.217534 1.832907 -15.186359 -1.564627 1.537965 18.411902 8.976439 -2.382230 37.775244 0.000000 0.000000 0.000000 4.403132 -0.599757 6.374596 -2.944295 1.182598 -7.344494 -2.199207 8.780430 6.466153 7.991985 -6.034817 -2.323243 0.000000 0.000000 0.000000 -9.963227 -4.453565 0.536830 -56.507356 15.869388 -14.359230 -29.341595 -36.193450 10.754532 0.000000 0.000000 0.000000 15.142955 -1.240273 -1.179605 56.610413 -10.782921 -10.575523 28.792235 43.500480 13.655203 0.000000 0.000000 0.000000 
0.002110 1.147810 0.081578 -1.317239 -8.951336 4.713908 4.653884 -0.678957 -18.090404 -1.893361 0.300043 16.190071 -7.381807 4.023276 45.945711 0.000000 0.000000 0.000000 2.441906 1.916409 -15.575330 -3.525519 1.497948 13.399383 7.931186 -6.274942 47.072648 0.000000 0.000000 0.000000 3.076239 -0.513618 6.945600 -1.977329 0.830186 -5.577596 -2.002806 9.331882 6.320196 6.994541 -4.201435 -7.322814 0.000000 0.000000 0.000000 -11.849055 -2.455233 -0.682635 -53.954696 16.355041 -13.759027 -30.117096 -35.843837 10.776987 0.000000 0.000000 0.000000 15.674631 -2.189210 -1.564167 57.810078 -11.156569 -10.967784 24.453045 40.463779 10.980506 0.000000 0.000000 0.000000 
0.000300 1.013432 0.082517 -0.869002 -6.931057 4.027665 3.470404 -1.019404 -20.386108 -1.212535 0.162231 27.677008 -5.053731 1.237031 27.452143 0.000000 0.000000 0.000000 1.432958 2.265842 -18.975600 -2.650968 2.447997 25.305121 4.423524 -4.518468 28.265096 0.000000 0.000000 0.000000 3.270892 -0.532941 7.017132 -1.329021 0.589948 -6.343387 -2.437687 7.423031 9.274759 6.192914 -3.493929 -8.696723 0.000000 0.000000 0.000000 -14.239353 -1.597620 -1.159440 -52.063446 15.793334 -13.143919 -28.746277 -38.969750 11.525601 0.000000 0.000000 0.000000 16.521332 -2.084852 -1.660597 58.087562 -11.953829 -11.729828 20.417956 38.854089 8.970038 0.000000 0.000000 0.000000 
-0.001038 0.867886 0.076681 -1.258061 -6.247219 2.738033 1.161321 -1.817564 -27.305581 0.894113 -0.728681 48.823543 4.818862 7.934249 -9.614631 0.000000 0.000000 0.000000 1.648869 3.188833 -25.213835 -0.451350 3.770717 46.545287 -4.839062 -7.388416 -12.486388 0.000000 0.000000 0.000000 3.661871 -0.915070 12.819399 -1.122650 0.518280 -8.326130 -2.357335 7.214602 7.861946 6.298859 -2.405856 -15.514255 0.000000 0.000000 0.000000 -20.154269 -2.637716 -1.495962 -46.678945 10.131701 -9.243308 -22.438165 -37.454567 8.760504 0.000000 0.000000 0.000000 19.242025 -2.394265 -1.976706 55.860709 -9.548821 -10.165452 12.224424 36.226433 5.603996 0.000000 0.000000 0.000000 
-0.000623 0.790017 0.064974 -0.948098 -7.452262 0.146407 -0.271041 -2.605824 -37.403850 2.690869 -1.888506 70.300412 6.236844 10.456103 -12.860496 0.000000 0.000000 0.000000 2.585173 4.939074 -33.803364 0.899065 5.564943 65.739014 -6.935196 -12.650642 -20.801483 0.000000 0.000000 0.000000 3.143064 -1.058130 18.207169 -0.945037 0.421356 -8.784472 -2.773790 7.812199 7.436375 6.110985 -1.540632 -20.463812 0.000000 0.000000 0.000000 -23.511653 -6.742265 0.373477 -45.786602 3.315362 -6.505067 -15.102176 -36.657937 6.105190 0.000000 0.000000 0.000000 22.746675 2.351867 0.631055 53.663710 -2.588922 -6.944862 6.082935 32.339949 3.157023 0.000000 0.000000 0.000000 
0.000228 0.771565 0.064324 -1.741168 -6.937459 -3.394454 -2.003206 -3.181860 -35.569275 6.143927 -5.517604 74.665294 5.615627 7.985559 -14.840853 0.000000 0.000000 0.000000 3.361117 4.961820 -32.859624 2.048372 4.840648 69.521777 -7.417701 -15.713060 -18.991618 0.000000 0.000000 0.000000 2.708419 -1.013065 19.164929 -0.871831 0.400342 -8.171627 -1.238128 7.366427 8.577824 5.112007 -1.163911 -19.479660 0.000000 0.000000 0.000000 -22.598918 -9.921985 2.417497 -47.627668 -1.107873 -5.321717 -15.687678 -38.338529 6.673383 0.000000 0.000000 0.000000 22.911985 8.237084 4.026061 52.710390 1.062325 -5.437105 5.819587 33.427339 3.141604 0.000000 0.000000 0.000000 
0.000107 0.783894 0.069471 -1.500358 -6.520871 -5.442057 -2.820884 -2.982478 -29.103005 6.964540 -5.855114 69.385337 5.948799 7.462292 -19.852138 0.000000 0.000000 0.000000 3.011558 4.146337 -28.891791 1.713334 4.586081 65.741596 -7.551478 -16.509683 -16.607477 0.000000 0.000000 0.000000 2.870574 -0.965524 17.641844 -1.548023 0.688315 -6.523872 -1.250054 6.984248 7.924216 5.146291 -1.374469 -18.092715 0.000000 0.000000 0.000000 -22.364448 -11.151821 3.117837 -47.032133 -1.849378 -4.926239 -22.482262 -45.574496 10.931290 0.000000 0.000000 0.000000 23.690882 9.261972 4.604496 52.949835 2.361346 -4.877388 6.418332 36.693698 3.696435 0.000000 0.000000 0.000000 
-0.000984 0.813172 0.077867 -1.124365 -7.239054 -5.964137 -1.840339 -2.237011 -23.399197 6.394548 -4.491264 62.766287 4.679328 3.069457 -20.696097 0.000000 0.000000 0.000000 2.823728 3.419091 -24.577974 0.458490 5.215314 60.100709 -6.359369 -12.356241 -13.812496 0.000000 0.000000 0.000000 3.588059 -0.949417 15.857653 -2.563601 1.125506 -5.351761 -1.148565 7.550951 5.766702 5.417156 -1.624012 -17.019675 0.000000 0.000000 0.000000 -21.906804 -10.035316 2.341232 -45.568595 -1.309600 -4.750729 -36.200175 -52.835236 19.892801 0.000000 0.000000 0.000000 23.573274 8.151015 3.917747 51.715088 2.421655 -4.573211 11.869169 44.156081 6.794177 0.000000 0.000000 0.000000 
-0.002022 0.856447 0.085843 -1.256830 -7.391298 -5.156174 -1.468508 -1.914971 -20.424905 5.998166 -3.757340 55.569292 3.032078 2.339260 -11.921237 0.000000 0.000000 0.000000 2.784271 2.780905 -20.675920 -1.050994 5.172096 51.980443 -4.018384 -7.461054 -6.601588 0.000000 0.000000 0.000000 4.024138 -0.883985 13.610374 -2.074210 0.902053 -5.846097 -1.693143 7.763097 5.940207 6.293808 -2.068304 -17.542966 0.000000 0.000000 0.000000 -19.877588 -9.115017 1.921941 -47.017420 -1.622955 -4.864388 -45.307684 -55.700685 26.379210 0.000000 0.000000 0.000000 21.831151 6.524092 2.955902 51.984120 2.575830 -4.499588 22.812366 50.539123 13.329123 0.000000 0.000000 0.000000 
-0.003272 0.895403 0.093383 -1.461481 -8.314090 -4.520210 -1.644745 -1.627158 -16.821326 5.524580 -2.869471 47.621070 2.595664 3.958751 -5.222121 0.000000 0.000000 0.000000 2.809729 1.949596 -15.156262 -3.186401 5.149296 42.268835 -1.221021 -0.882787 -3.683561 0.000000 0.000000 0.000000 5.280873 -0.835340 11.041108 -2.073402 0.900380 -4.781216 -2.895382 8.642456 5.219849 7.714471 -2.748065 -18.108742 0.000000 0.000000 0.000000 -18.825344 -8.591851 1.514858 -48.398636 -1.318729 -5.062767 -52.307284 -58.179918 31.904308 0.000000 0.000000 0.000000 20.362450 4.474578 1.913394 51.766756 2.637096 -4.378866 37.213152 56.596348 23.738275 0.000000 0.000000 0.000000 
